<svg xmlns="http://www.w3.org/2000/svg" width="640" height="320" viewBox="0 0 640 320">
  <defs>
    <filter id="glow"><feGaussianBlur stdDeviation="3.2" result="blur"/><feMerge><feMergeNode in="blur"/><feMergeNode in="SourceGraphic"/></feMerge></filter>
  </defs>
  <rect width="640" height="320" rx="0" fill="#080b16"/>
  <rect width="640" height="58" fill="#080b16"/>
  <text x="24" y="34" class="title">pattern_57  support=345</text>
  <text x="616" y="34" text-anchor="end" class="layout-type">center_linked_pair</text>
  <g filter="url(#glow)">
    <line x1="158" y1="108" x2="320" y2="166" class="edge"/><circle cx="239.0" cy="137.0" r="4" class="edge-joint"/><line x1="320" y1="166" x2="482" y2="224" class="edge"/><circle cx="401.0" cy="195.0" r="4" class="edge-joint"/>
    <circle cx="158" cy="108" r="48" class="node-halo"/>
        <g transform="translate(140.0,89.0)" class="node-icon">
          <rect x="3" y="7" width="32" height="6" rx="2"/>
          <rect x="5" y="17" width="30" height="6" rx="2"/>
          <path d="M9 23 V31 M29 23 V31 M7 13 V17 M31 13 V17"/>
        </g><text x="158" y="172" text-anchor="middle" class="node-label">bench</text><circle cx="320" cy="166" r="48" class="node-halo"/>
        <g transform="translate(306.0,142.0)" class="node-icon">
          <circle cx="17" cy="13" r="10"/><circle cx="10" cy="18" r="7"/><circle cx="24" cy="18" r="7"/>
          <rect x="15" y="23" width="5" height="13" rx="1"/>
        </g><text x="320" y="230" text-anchor="middle" class="node-label">tree</text><circle cx="482" cy="224" r="48" class="node-halo"/>
        <g transform="translate(468.0,200.0)" class="node-icon">
          <circle cx="17" cy="13" r="10"/><circle cx="10" cy="18" r="7"/><circle cx="24" cy="18" r="7"/>
          <rect x="15" y="23" width="5" height="13" rx="1"/>
        </g><text x="482" y="288" text-anchor="middle" class="node-label">plant</text>
  </g>
  <style>
    .title { fill:#dfe8ff; font:600 18px Arial, sans-serif; letter-spacing:0; }
    .edge { stroke:#7b61ff; stroke-width:4; opacity:.9; }
    .edge-joint { fill:#36c8ff; opacity:.95; }
    .node-halo { fill:#101a33; stroke:#36c8ff; stroke-width:2.5; opacity:.95; }
    .node-icon { fill:none; stroke:#dfe8ff; stroke-width:2.4; stroke-linecap:round; stroke-linejoin:round; }
    .node-icon-cut { stroke:#080b16; stroke-width:2.8; }
    .node-label { fill:#aab8ff; font:500 14px Arial, sans-serif; letter-spacing:0; }
    .layout-type { fill:#7d8ccf; font:500 12px Arial, sans-serif; letter-spacing:0; }
    .generic-letter { fill:#dfe8ff; stroke:none; font:700 16px Arial, sans-serif; }
  </style>
</svg>